<mxfile host="app.diagrams.net" modified="2022-06-02T09:43:06.818Z" agent="5.0 (Macintosh; Intel Mac OS X 10_15_7) AppleWebKit/605.1.15 (KHTML, like Gecko) Version/15.4 Safari/605.1.15" etag="QKz5m0xB12NNx6amBrdI" version="18.1.3" type="github">
  <diagram id="ZHFmn1O8iBGDp4UG5cLw" name="第 1 页">
    <mxGraphModel dx="1258" dy="689" grid="1" gridSize="10" guides="1" tooltips="1" connect="1" arrows="1" fold="1" page="1" pageScale="1" pageWidth="827" pageHeight="1169" math="0" shadow="0">
      <root>
        <mxCell id="0" />
        <mxCell id="1" parent="0" />
        <mxCell id="MuOSUnfnY5i5KjU-0mZP-1" value="" style="rounded=1;whiteSpace=wrap;html=1;" parent="1" vertex="1">
          <mxGeometry x="40" y="320" width="120" height="60" as="geometry" />
        </mxCell>
        <mxCell id="MuOSUnfnY5i5KjU-0mZP-2" value="" style="rounded=1;whiteSpace=wrap;html=1;" parent="1" vertex="1">
          <mxGeometry x="50" y="330" width="120" height="60" as="geometry" />
        </mxCell>
        <mxCell id="MuOSUnfnY5i5KjU-0mZP-3" value="workloads" style="rounded=1;whiteSpace=wrap;html=1;" parent="1" vertex="1">
          <mxGeometry x="60" y="340" width="120" height="60" as="geometry" />
        </mxCell>
        <mxCell id="MuOSUnfnY5i5KjU-0mZP-26" style="edgeStyle=orthogonalEdgeStyle;rounded=0;orthogonalLoop=1;jettySize=auto;html=1;exitX=1;exitY=0.5;exitDx=0;exitDy=0;entryX=0;entryY=0.5;entryDx=0;entryDy=0;" parent="1" source="MuOSUnfnY5i5KjU-0mZP-4" target="MuOSUnfnY5i5KjU-0mZP-5" edge="1">
          <mxGeometry relative="1" as="geometry" />
        </mxCell>
        <mxCell id="MuOSUnfnY5i5KjU-0mZP-43" value="distribute" style="edgeLabel;html=1;align=center;verticalAlign=middle;resizable=0;points=[];" parent="MuOSUnfnY5i5KjU-0mZP-26" vertex="1" connectable="0">
          <mxGeometry x="-0.1556" relative="1" as="geometry">
            <mxPoint as="offset" />
          </mxGeometry>
        </mxCell>
        <mxCell id="MuOSUnfnY5i5KjU-0mZP-4" value="lvs+nginx" style="shape=parallelogram;perimeter=parallelogramPerimeter;whiteSpace=wrap;html=1;fixedSize=1;" parent="1" vertex="1">
          <mxGeometry x="260" y="330" width="120" height="60" as="geometry" />
        </mxCell>
        <mxCell id="KTjaanPhWeu9NxZkjlvB-3" style="edgeStyle=orthogonalEdgeStyle;rounded=0;orthogonalLoop=1;jettySize=auto;html=1;exitX=0.75;exitY=0;exitDx=0;exitDy=0;entryX=0;entryY=0.5;entryDx=0;entryDy=0;" edge="1" parent="1" source="MuOSUnfnY5i5KjU-0mZP-5" target="KTjaanPhWeu9NxZkjlvB-1">
          <mxGeometry relative="1" as="geometry" />
        </mxCell>
        <mxCell id="MuOSUnfnY5i5KjU-0mZP-5" value="" style="whiteSpace=wrap;html=1;aspect=fixed;" parent="1" vertex="1">
          <mxGeometry x="460" y="320" width="80" height="80" as="geometry" />
        </mxCell>
        <mxCell id="MuOSUnfnY5i5KjU-0mZP-6" value="" style="whiteSpace=wrap;html=1;aspect=fixed;" parent="1" vertex="1">
          <mxGeometry x="470" y="330" width="80" height="80" as="geometry" />
        </mxCell>
        <mxCell id="MuOSUnfnY5i5KjU-0mZP-7" value="servers" style="whiteSpace=wrap;html=1;aspect=fixed;" parent="1" vertex="1">
          <mxGeometry x="480" y="340" width="80" height="80" as="geometry" />
        </mxCell>
        <mxCell id="MuOSUnfnY5i5KjU-0mZP-28" style="edgeStyle=orthogonalEdgeStyle;rounded=0;orthogonalLoop=1;jettySize=auto;html=1;exitX=0.5;exitY=1;exitDx=0;exitDy=0;exitPerimeter=0;entryX=0.5;entryY=0;entryDx=0;entryDy=0;" parent="1" source="MuOSUnfnY5i5KjU-0mZP-8" target="MuOSUnfnY5i5KjU-0mZP-9" edge="1">
          <mxGeometry relative="1" as="geometry" />
        </mxCell>
        <mxCell id="MuOSUnfnY5i5KjU-0mZP-45" value="consume" style="edgeLabel;html=1;align=center;verticalAlign=middle;resizable=0;points=[];" parent="MuOSUnfnY5i5KjU-0mZP-28" vertex="1" connectable="0">
          <mxGeometry x="-0.225" y="1" relative="1" as="geometry">
            <mxPoint as="offset" />
          </mxGeometry>
        </mxCell>
        <mxCell id="MuOSUnfnY5i5KjU-0mZP-8" value="Kafka" style="shape=cylinder3;whiteSpace=wrap;html=1;boundedLbl=1;backgroundOutline=1;size=15;" parent="1" vertex="1">
          <mxGeometry x="650" y="320" width="60" height="80" as="geometry" />
        </mxCell>
        <mxCell id="MuOSUnfnY5i5KjU-0mZP-29" style="edgeStyle=orthogonalEdgeStyle;rounded=0;orthogonalLoop=1;jettySize=auto;html=1;exitX=0;exitY=0.25;exitDx=0;exitDy=0;entryX=1;entryY=0.5;entryDx=0;entryDy=0;" parent="1" source="MuOSUnfnY5i5KjU-0mZP-9" target="MuOSUnfnY5i5KjU-0mZP-17" edge="1">
          <mxGeometry relative="1" as="geometry" />
        </mxCell>
        <mxCell id="MuOSUnfnY5i5KjU-0mZP-39" value="write" style="edgeLabel;html=1;align=center;verticalAlign=middle;resizable=0;points=[];" parent="MuOSUnfnY5i5KjU-0mZP-29" vertex="1" connectable="0">
          <mxGeometry x="0.2603" y="-1" relative="1" as="geometry">
            <mxPoint as="offset" />
          </mxGeometry>
        </mxCell>
        <mxCell id="MuOSUnfnY5i5KjU-0mZP-30" style="edgeStyle=orthogonalEdgeStyle;rounded=0;orthogonalLoop=1;jettySize=auto;html=1;exitX=0;exitY=0.75;exitDx=0;exitDy=0;entryX=1;entryY=0.5;entryDx=0;entryDy=0;" parent="1" source="MuOSUnfnY5i5KjU-0mZP-9" target="MuOSUnfnY5i5KjU-0mZP-20" edge="1">
          <mxGeometry relative="1" as="geometry" />
        </mxCell>
        <mxCell id="MuOSUnfnY5i5KjU-0mZP-38" value="lock&amp;amp;expire&amp;amp;exist" style="edgeLabel;html=1;align=center;verticalAlign=middle;resizable=0;points=[];" parent="MuOSUnfnY5i5KjU-0mZP-30" vertex="1" connectable="0">
          <mxGeometry x="0.0681" y="4" relative="1" as="geometry">
            <mxPoint as="offset" />
          </mxGeometry>
        </mxCell>
        <mxCell id="MuOSUnfnY5i5KjU-0mZP-9" value="" style="whiteSpace=wrap;html=1;aspect=fixed;" parent="1" vertex="1">
          <mxGeometry x="640" y="480" width="80" height="80" as="geometry" />
        </mxCell>
        <mxCell id="MuOSUnfnY5i5KjU-0mZP-10" value="" style="whiteSpace=wrap;html=1;aspect=fixed;" parent="1" vertex="1">
          <mxGeometry x="650" y="490" width="80" height="80" as="geometry" />
        </mxCell>
        <mxCell id="MuOSUnfnY5i5KjU-0mZP-11" value="consumers" style="whiteSpace=wrap;html=1;aspect=fixed;" parent="1" vertex="1">
          <mxGeometry x="660" y="500" width="80" height="80" as="geometry" />
        </mxCell>
        <mxCell id="MuOSUnfnY5i5KjU-0mZP-17" value="PG" style="shape=datastore;whiteSpace=wrap;html=1;" parent="1" vertex="1">
          <mxGeometry x="434" y="470" width="60" height="60" as="geometry" />
        </mxCell>
        <mxCell id="MuOSUnfnY5i5KjU-0mZP-18" value="" style="shape=delay;whiteSpace=wrap;html=1;" parent="1" vertex="1">
          <mxGeometry x="434" y="585" width="80" height="40" as="geometry" />
        </mxCell>
        <mxCell id="MuOSUnfnY5i5KjU-0mZP-19" value="" style="shape=delay;whiteSpace=wrap;html=1;" parent="1" vertex="1">
          <mxGeometry x="444" y="595" width="80" height="40" as="geometry" />
        </mxCell>
        <mxCell id="MuOSUnfnY5i5KjU-0mZP-20" value="redis" style="shape=delay;whiteSpace=wrap;html=1;" parent="1" vertex="1">
          <mxGeometry x="454" y="605" width="80" height="40" as="geometry" />
        </mxCell>
        <mxCell id="MuOSUnfnY5i5KjU-0mZP-22" value="" style="whiteSpace=wrap;html=1;aspect=fixed;" parent="1" vertex="1">
          <mxGeometry x="210" y="535" width="80" height="80" as="geometry" />
        </mxCell>
        <mxCell id="MuOSUnfnY5i5KjU-0mZP-23" value="" style="whiteSpace=wrap;html=1;aspect=fixed;" parent="1" vertex="1">
          <mxGeometry x="220" y="545" width="80" height="80" as="geometry" />
        </mxCell>
        <mxCell id="MuOSUnfnY5i5KjU-0mZP-40" style="edgeStyle=orthogonalEdgeStyle;rounded=0;orthogonalLoop=1;jettySize=auto;html=1;exitX=1;exitY=0.25;exitDx=0;exitDy=0;entryX=0;entryY=0.7;entryDx=0;entryDy=0;" parent="1" source="MuOSUnfnY5i5KjU-0mZP-24" target="MuOSUnfnY5i5KjU-0mZP-17" edge="1">
          <mxGeometry relative="1" as="geometry" />
        </mxCell>
        <mxCell id="MuOSUnfnY5i5KjU-0mZP-41" value="query" style="edgeLabel;html=1;align=center;verticalAlign=middle;resizable=0;points=[];" parent="MuOSUnfnY5i5KjU-0mZP-40" vertex="1" connectable="0">
          <mxGeometry x="0.016" y="-2" relative="1" as="geometry">
            <mxPoint as="offset" />
          </mxGeometry>
        </mxCell>
        <mxCell id="MuOSUnfnY5i5KjU-0mZP-24" value="APIs" style="whiteSpace=wrap;html=1;aspect=fixed;" parent="1" vertex="1">
          <mxGeometry x="230" y="555" width="80" height="80" as="geometry" />
        </mxCell>
        <mxCell id="MuOSUnfnY5i5KjU-0mZP-25" value="" style="endArrow=classic;html=1;rounded=0;exitX=1;exitY=0.5;exitDx=0;exitDy=0;entryX=0;entryY=0.75;entryDx=0;entryDy=0;" parent="1" source="MuOSUnfnY5i5KjU-0mZP-3" target="MuOSUnfnY5i5KjU-0mZP-4" edge="1">
          <mxGeometry width="50" height="50" relative="1" as="geometry">
            <mxPoint x="510" y="500" as="sourcePoint" />
            <mxPoint x="560" y="450" as="targetPoint" />
          </mxGeometry>
        </mxCell>
        <mxCell id="MuOSUnfnY5i5KjU-0mZP-42" value="push" style="edgeLabel;html=1;align=center;verticalAlign=middle;resizable=0;points=[];" parent="MuOSUnfnY5i5KjU-0mZP-25" vertex="1" connectable="0">
          <mxGeometry x="-0.5104" y="2" relative="1" as="geometry">
            <mxPoint as="offset" />
          </mxGeometry>
        </mxCell>
        <mxCell id="MuOSUnfnY5i5KjU-0mZP-46" value="" style="rounded=0;whiteSpace=wrap;html=1;" parent="1" vertex="1">
          <mxGeometry x="40" y="545" width="50" height="45" as="geometry" />
        </mxCell>
        <mxCell id="MuOSUnfnY5i5KjU-0mZP-47" value="" style="triangle;whiteSpace=wrap;html=1;rotation=-90;" parent="1" vertex="1">
          <mxGeometry x="57.5" y="585" width="15" height="30" as="geometry" />
        </mxCell>
        <mxCell id="MuOSUnfnY5i5KjU-0mZP-50" value="" style="rounded=0;whiteSpace=wrap;html=1;" parent="1" vertex="1">
          <mxGeometry x="50" y="555" width="50" height="45" as="geometry" />
        </mxCell>
        <mxCell id="MuOSUnfnY5i5KjU-0mZP-51" value="" style="triangle;whiteSpace=wrap;html=1;rotation=-90;" parent="1" vertex="1">
          <mxGeometry x="67.5" y="595" width="15" height="30" as="geometry" />
        </mxCell>
        <mxCell id="MuOSUnfnY5i5KjU-0mZP-52" value="clients" style="rounded=0;whiteSpace=wrap;html=1;" parent="1" vertex="1">
          <mxGeometry x="60" y="565" width="50" height="45" as="geometry" />
        </mxCell>
        <mxCell id="MuOSUnfnY5i5KjU-0mZP-53" value="" style="triangle;whiteSpace=wrap;html=1;rotation=-90;" parent="1" vertex="1">
          <mxGeometry x="77.5" y="605" width="15" height="30" as="geometry" />
        </mxCell>
        <mxCell id="MuOSUnfnY5i5KjU-0mZP-59" value="" style="shape=flexArrow;endArrow=classic;html=1;rounded=0;exitX=1;exitY=0.5;exitDx=0;exitDy=0;entryX=-0.012;entryY=0.613;entryDx=0;entryDy=0;entryPerimeter=0;" parent="1" source="MuOSUnfnY5i5KjU-0mZP-52" target="MuOSUnfnY5i5KjU-0mZP-22" edge="1">
          <mxGeometry width="50" height="50" relative="1" as="geometry">
            <mxPoint x="440" y="550" as="sourcePoint" />
            <mxPoint x="490" y="500" as="targetPoint" />
          </mxGeometry>
        </mxCell>
        <mxCell id="MuOSUnfnY5i5KjU-0mZP-60" value="web-requests" style="text;html=1;strokeColor=none;fillColor=none;align=center;verticalAlign=middle;whiteSpace=wrap;rounded=0;" parent="1" vertex="1">
          <mxGeometry x="120" y="595" width="80" height="30" as="geometry" />
        </mxCell>
        <mxCell id="KTjaanPhWeu9NxZkjlvB-1" value="" style="rounded=1;whiteSpace=wrap;html=1;" vertex="1" parent="1">
          <mxGeometry x="550" y="210" width="90" height="40" as="geometry" />
        </mxCell>
        <mxCell id="KTjaanPhWeu9NxZkjlvB-4" style="edgeStyle=orthogonalEdgeStyle;rounded=0;orthogonalLoop=1;jettySize=auto;html=1;exitX=1;exitY=0.5;exitDx=0;exitDy=0;entryX=0.5;entryY=0;entryDx=0;entryDy=0;entryPerimeter=0;" edge="1" parent="1" source="KTjaanPhWeu9NxZkjlvB-2" target="MuOSUnfnY5i5KjU-0mZP-8">
          <mxGeometry relative="1" as="geometry" />
        </mxCell>
        <mxCell id="KTjaanPhWeu9NxZkjlvB-2" value="producers" style="rounded=1;whiteSpace=wrap;html=1;" vertex="1" parent="1">
          <mxGeometry x="560" y="220" width="90" height="40" as="geometry" />
        </mxCell>
      </root>
    </mxGraphModel>
  </diagram>
</mxfile>
